<svg width="539.547" height="560.96" viewBox="0 0 404.66 420.72" class="displayed_equation" xmlns="http://www.w3.org/2000/svg">
  <defs>
    <clipPath id="svg809139094679tikz_00007g">
      <path d="M 77.636719 107 L 262 107 L 262 243 L 77.636719 243 Z M 77.636719 107" />
    </clipPath>
    <clipPath id="svg809139094679tikz_00007a">
      <path d="M 77.636719 43.230469 L 388.925781 43.230469 L 388.925781 404.984375 L 77.636719 404.984375 Z M 77.636719 43.230469" />
    </clipPath>
    <clipPath id="svg809139094679tikz_00007c">
      <path d="M 84 387 L 105 387 L 105 404.984375 L 84 404.984375 Z M 84 387" />
    </clipPath>
    <clipPath id="svg809139094679tikz_00007d">
      <path d="M 77.636719 157 L 388.925781 157 L 388.925781 380 L 77.636719 380 Z M 77.636719 157" />
    </clipPath>
    <clipPath id="svg809139094679tikz_00007e">
      <path d="M 77.636719 152 L 341 152 L 341 334 L 77.636719 334 Z M 77.636719 152" />
    </clipPath>
    <clipPath id="svg809139094679tikz_00007f">
      <path d="M 77.636719 107 L 341 107 L 341 289 L 77.636719 289 Z M 77.636719 107" />
    </clipPath>
    <clipPath id="svg809139094679tikz_00007b">
      <path d="M 77.636719 202 L 388.925781 202 L 388.925781 404.984375 L 77.636719 404.984375 Z M 77.636719 202" />
    </clipPath>
    <clipPath id="svg809139094679tikz_00007h">
      <path d="M 77.636719 61 L 263 61 L 263 197 L 77.636719 197 Z M 77.636719 61" />
    </clipPath>
    <clipPath id="svg809139094679tikz_00007i">
      <path d="M 77.636719 46 L 209 46 L 209 152 L 77.636719 152 Z M 77.636719 46" />
    </clipPath>
    <clipPath id="svg809139094679tikz_00007j">
      <path d="M 77.636719 43.230469 L 183 43.230469 L 183 107 L 77.636719 107 Z M 77.636719 43.230469" />
    </clipPath>
    <clipPath id="svg809139094679tikz_00007k">
      <path d="M 91 43.230469 L 150 43.230469 L 150 93 L 91 93 Z M 91 43.230469" />
    </clipPath>
    <clipPath id="svg809139094679tikz_00007l">
      <path d="M 91 355 L 150 355 L 150 404.984375 L 91 404.984375 Z M 91 355" />
    </clipPath>
  </defs>
  <g clip-path="url(#svg809139094679tikz_00007a)">
    <path d="M 1548.007813 3764.817187 L 832.109375 3351.535937 C 785.078125 3324.3875 768.945313 3264.192187 796.09375 3217.121875 C 823.28125 3170.090625 883.4375 3153.957812 930.507813 3181.10625 L 1708.164063 3630.442187 C 1755.195313 3657.629687 1815.390625 3641.496875 1842.539063 3594.426562 C 1869.726563 3547.395312 1853.59375 3487.2 1806.523438 3460.051562 L 840.859375 2902.239062 C 793.789063 2875.090625 777.695313 2814.895312 804.84375 2767.864062 C 832.03125 2720.79375 892.1875 2704.660937 939.257813 2731.848437 L 2252.148438 3489.660937 C 2299.179688 3516.848437 2359.335938 3500.715625 2386.523438 3453.645312 C 2413.671875 3406.614062 2397.578125 3346.41875 2350.507813 3319.270312 L 840.859375 2445.989062 C 793.789063 2418.801562 777.695313 2358.645312 804.84375 2311.575 C 832.03125 2264.504687 892.1875 2248.410937 939.257813 2275.559375 L 2237.695313 3024.153125 C 2284.765625 3051.340625 2344.921875 3035.207812 2372.109375 2988.176562 C 2399.296875 2941.10625 2383.164063 2880.910937 2336.09375 2853.7625 L 840.859375 1989.7 C 793.789063 1962.5125 777.695313 1902.35625 804.84375 1855.285937 C 832.03125 1808.254687 892.1875 1792.121875 939.257813 1819.309375 L 3032.1875 3025.559375 C 3079.257813 3052.746875 3139.414063 3036.614062 3166.601563 2989.54375 C 3193.75 2942.473437 3177.65625 2882.317187 3130.585938 2855.16875 L 840.859375 1533.410937 C 793.789063 1506.2625 777.695313 1446.067187 804.84375 1399.035937 C 832.03125 1351.965625 892.1875 1335.832812 939.257813 1362.98125 L 3032.1875 2573.45 C 3079.257813 2600.598437 3139.414063 2584.465625 3166.601563 2537.434375 C 3193.75 2490.364062 3177.65625 2430.207812 3130.585938 2403.059375 L 840.859375 1077.121875 C 793.789063 1049.973437 777.695313 989.817187 804.84375 942.746875 C 832.03125 895.676562 892.1875 879.54375 939.257813 906.73125 L 3735.117188 2521.2625 C 3782.1875 2548.410937 3842.34375 2532.278125 3869.53125 2485.246875 C 3896.71875 2438.176562 3880.585938 2377.98125 3833.515625 2350.832812 L 840.859375 620.832812 C 793.789063 593.684375 777.695313 533.528125 804.84375 486.457812 C 832.03125 439.3875 892.1875 423.29375 939.257813 450.442187 L 3735.117188 2069.817187 C 3782.1875 2097.004687 3842.34375 2080.871875 3869.53125 2033.801562 C 3896.71875 1986.770312 3880.585938 1926.575 3833.515625 1899.426562 L 840.859375 164.582812" transform="matrix(.1 0 0 -.1 0 420.72)" fill="none" stroke-width="13.097" stroke="#000" stroke-miterlimit="10" />
  </g>
  <g clip-path="url(#svg809139094679tikz_00007b)">
    <path d="M 3833.515625 1899.426562 L 960.859375 234.114062" transform="matrix(.1 0 0 -.1 0 420.72)" fill="none" stroke-width="19.645" stroke="#ed1111" stroke-miterlimit="10" />
  </g>
  <g clip-path="url(#svg809139094679tikz_00007c)">
    <path d="M 84.085938 404.261719 L 96.988281 387.550781 L 96.980469 396.785156 L 105 401.371094 Z M 84.085938 404.261719" fill="#ed1111" />
  </g>
  <g clip-path="url(#svg809139094679tikz_00007d)">
    <path d="M 3833.515625 2350.832812 L 960.9375 690.246875" transform="matrix(.1 0 0 -.1 0 420.72)" fill="none" stroke-width="19.645" stroke="#ed1111" stroke-miterlimit="10" />
  </g>
  <path d="M 84.085938 358.636719 L 97.011719 341.9375 L 96.992188 351.175781 L 105.003906 355.765625 Z M 84.085938 358.636719" fill="#ed1111" />
  <g clip-path="url(#svg809139094679tikz_00007e)">
    <path d="M 3130.585938 2403.059375 L 960.898438 1146.614062" transform="matrix(.1 0 0 -.1 0 420.72)" fill="none" stroke-width="19.645" stroke="#ed1111" stroke-miterlimit="10" />
  </g>
  <path d="M 84.085938 313.007813 L 96.996094 296.300781 L 96.984375 305.535156 L 105.003906 310.121094 Z M 84.085938 313.007813" fill="#ed1111" />
  <g clip-path="url(#svg809139094679tikz_00007f)">
    <path d="M 3130.585938 2855.16875 L 960.976563 1602.785937" transform="matrix(.1 0 0 -.1 0 420.72)" fill="none" stroke-width="19.645" stroke="#ed1111" stroke-miterlimit="10" />
  </g>
  <path d="M 84.085938 267.378906 L 97.019531 250.691406 L 96.996094 259.925781 L 105.003906 264.523438 Z M 84.085938 267.378906" fill="#ed1111" />
  <g clip-path="url(#svg809139094679tikz_00007g)">
    <path d="M 2336.09375 2853.7625 L 960.976563 2059.114062" transform="matrix(.1 0 0 -.1 0 420.72)" fill="none" stroke-width="19.645" stroke="#ed1111" stroke-miterlimit="10" />
  </g>
  <path d="M 84.085938 221.75 L 97.011719 205.054688 L 96.992188 214.292969 L 105.003906 218.886719 Z M 84.085938 221.75" fill="#ed1111" />
  <g clip-path="url(#svg809139094679tikz_00007h)">
    <path d="M 2350.507813 3319.270312 L 960.9375 2515.403125" transform="matrix(.1 0 0 -.1 0 420.72)" fill="none" stroke-width="19.645" stroke="#ed1111" stroke-miterlimit="10" />
  </g>
  <path d="M 84.085938 176.125 L 97.003906 159.421875 L 96.988281 168.660156 L 105.003906 173.246094 Z M 84.085938 176.125" fill="#ed1111" />
  <g clip-path="url(#svg809139094679tikz_00007i)">
    <path d="M 1806.523438 3460.051562 L 960.976563 2971.614062" transform="matrix(.1 0 0 -.1 0 420.72)" fill="none" stroke-width="19.645" stroke="#ed1111" stroke-miterlimit="10" />
  </g>
  <path d="M 84.085938 130.496094 L 97.015625 113.804688 L 96.996094 123.035156 L 105.003906 127.632813 Z M 84.085938 130.496094" fill="#ed1111" />
  <g clip-path="url(#svg809139094679tikz_00007j)">
    <path d="M 1548.007813 3764.817187 L 952.226563 3420.871875" transform="matrix(.1 0 0 -.1 0 420.72)" fill="none" stroke-width="19.645" stroke="#ed1111" stroke-miterlimit="10" />
  </g>
  <path d="M 83.210938 85.566406 L 96.144531 68.878906 L 96.121094 78.113281 L 104.132813 82.710938 Z M 83.210938 85.566406" fill="#ed1111" />
  <path d="M 130.816406 63.835938 C 130.816406 69.625 126.121094 74.320313 120.328125 74.320313 C 114.539063 74.320313 109.84375 69.625 109.84375 63.835938 C 109.84375 58.039063 114.539063 53.34375 120.328125 53.34375 C 126.121094 53.34375 130.816406 58.039063 130.816406 63.835938 Z M 130.816406 63.835938" fill="#ffed0b" />
  <g clip-path="url(#svg809139094679tikz_00007k)">
    <path d="M 1308.164063 3568.840625 C 1308.164063 3510.95 1261.210938 3463.996875 1203.28125 3463.996875 C 1145.390625 3463.996875 1098.4375 3510.95 1098.4375 3568.840625 C 1098.4375 3626.809375 1145.390625 3673.7625 1203.28125 3673.7625 C 1261.210938 3673.7625 1308.164063 3626.809375 1308.164063 3568.840625 Z M 1308.164063 3568.840625" transform="matrix(.1 0 0 -.1 0 420.72)" fill="none" stroke-width="13.097" stroke="#000" stroke-miterlimit="10" />
  </g>
  <path d="M 1308.164063 3111.2625 C 1308.164063 3053.332812 1261.210938 3006.379687 1203.28125 3006.379687 C 1145.390625 3006.379687 1098.4375 3053.332812 1098.4375 3111.2625 C 1098.4375 3169.192187 1145.390625 3216.145312 1203.28125 3216.145312 C 1261.210938 3216.145312 1308.164063 3169.192187 1308.164063 3111.2625 Z M 1308.164063 3111.2625" transform="matrix(.1 0 0 -.1 0 420.72)" fill="#ffed0b" stroke-width="13.097" stroke="#000" stroke-miterlimit="10" />
  <path d="M2090.585938 3111.2625C2090.585938 3053.332812 2043.632813 3006.379687 1985.703125 3006.379687 1927.8125 3006.379687 1880.859375 3053.332812 1880.859375 3111.2625 1880.859375 3169.192187 1927.8125 3216.145312 1985.703125 3216.145312 2043.632813 3216.145312 2090.585938 3169.192187 2090.585938 3111.2625zM2090.585938 2653.645312C2090.585938 2595.715625 2043.632813 2548.7625 1985.703125 2548.7625 1927.8125 2548.7625 1880.859375 2595.715625 1880.859375 2653.645312 1880.859375 2711.535937 1927.8125 2758.528125 1985.703125 2758.528125 2043.632813 2758.528125 2090.585938 2711.535937 2090.585938 2653.645312zM2090.585938 2653.645312" transform="matrix(.1 0 0 -.1 0 420.72)" fill="#9eed4a" stroke-width="13.097" stroke="#000" stroke-miterlimit="10" />
  <path d="M2887.578125 2653.645312C2887.578125 2595.715625 2840.625 2548.7625 2782.695313 2548.7625 2724.804688 2548.7625 2677.851563 2595.715625 2677.851563 2653.645312 2677.851563 2711.535937 2724.804688 2758.528125 2782.695313 2758.528125 2840.625 2758.528125 2887.578125 2711.535937 2887.578125 2653.645312zM2887.578125 2196.028125C2887.578125 2138.098437 2840.625 2091.145312 2782.695313 2091.145312 2724.804688 2091.145312 2677.851563 2138.098437 2677.851563 2196.028125 2677.851563 2253.91875 2724.804688 2300.871875 2782.695313 2300.871875 2840.625 2300.871875 2887.578125 2253.91875 2887.578125 2196.028125zM2887.578125 2196.028125" transform="matrix(.1 0 0 -.1 0 420.72)" fill="#4bead3" stroke-width="13.097" stroke="#000" stroke-miterlimit="10" />
  <path d="M3670.664063 2196.028125C3670.664063 2138.098437 3623.710938 2091.145312 3565.78125 2091.145312 3507.890625 2091.145312 3460.9375 2138.098437 3460.9375 2196.028125 3460.9375 2253.91875 3507.890625 2300.871875 3565.78125 2300.871875 3623.710938 2300.871875 3670.664063 2253.91875 3670.664063 2196.028125zM3670.664063 1740.090625C3670.664063 1682.160937 3623.710938 1635.246875 3565.78125 1635.246875 3507.890625 1635.246875 3460.9375 1682.160937 3460.9375 1740.090625 3460.9375 1798.020312 3507.890625 1844.973437 3565.78125 1844.973437 3623.710938 1844.973437 3670.664063 1798.020312 3670.664063 1740.090625zM3670.664063 1740.090625" transform="matrix(.1 0 0 -.1 0 420.72)" fill="#d6ff40" stroke-width="13.097" stroke="#000" stroke-miterlimit="10" />
  <path d="M2887.578125 1738.371875C2887.578125 1680.442187 2840.625 1633.528125 2782.695313 1633.528125 2724.804688 1633.528125 2677.851563 1680.442187 2677.851563 1738.371875 2677.851563 1796.301562 2724.804688 1843.254687 2782.695313 1843.254687 2840.625 1843.254687 2887.578125 1796.301562 2887.578125 1738.371875zM2887.578125 1280.754687C2887.578125 1222.825 2840.625 1175.871875 2782.695313 1175.871875 2724.804688 1175.871875 2677.851563 1222.825 2677.851563 1280.754687 2677.851563 1338.684375 2724.804688 1385.6375 2782.695313 1385.6375 2840.625 1385.6375 2887.578125 1338.684375 2887.578125 1280.754687zM2887.578125 1280.754687" transform="matrix(.1 0 0 -.1 0 420.72)" fill="#4bead3" stroke-width="13.097" stroke="#000" stroke-miterlimit="10" />
  <path d="M2090.585938 2196.028125C2090.585938 2138.098437 2043.632813 2091.145312 1985.703125 2091.145312 1927.8125 2091.145312 1880.859375 2138.098437 1880.859375 2196.028125 1880.859375 2253.91875 1927.8125 2300.871875 1985.703125 2300.871875 2043.632813 2300.871875 2090.585938 2253.91875 2090.585938 2196.028125zM2090.585938 1738.371875C2090.585938 1680.442187 2043.632813 1633.528125 1985.703125 1633.528125 1927.8125 1633.528125 1880.859375 1680.442187 1880.859375 1738.371875 1880.859375 1796.301562 1927.8125 1843.254687 1985.703125 1843.254687 2043.632813 1843.254687 2090.585938 1796.301562 2090.585938 1738.371875zM2090.585938 1280.754687C2090.585938 1222.825 2043.632813 1175.871875 1985.703125 1175.871875 1927.8125 1175.871875 1880.859375 1222.825 1880.859375 1280.754687 1880.859375 1338.684375 1927.8125 1385.6375 1985.703125 1385.6375 2043.632813 1385.6375 2090.585938 1338.684375 2090.585938 1280.754687zM2090.585938 823.1375C2090.585938 765.207812 2043.632813 718.254687 1985.703125 718.254687 1927.8125 718.254687 1880.859375 765.207812 1880.859375 823.1375 1880.859375 881.028125 1927.8125 928.020312 1985.703125 928.020312 2043.632813 928.020312 2090.585938 881.028125 2090.585938 823.1375zM2090.585938 823.1375" transform="matrix(.1 0 0 -.1 0 420.72)" fill="#9eed4a" stroke-width="13.097" stroke="#000" stroke-miterlimit="10" />
  <path d="M1308.164063 2653.645312C1308.164063 2595.715625 1261.210938 2548.7625 1203.28125 2548.7625 1145.390625 2548.7625 1098.4375 2595.715625 1098.4375 2653.645312 1098.4375 2711.535937 1145.390625 2758.528125 1203.28125 2758.528125 1261.210938 2758.528125 1308.164063 2711.535937 1308.164063 2653.645312zM1308.164063 2196.028125C1308.164063 2138.098437 1261.210938 2091.145312 1203.28125 2091.145312 1145.390625 2091.145312 1098.4375 2138.098437 1098.4375 2196.028125 1098.4375 2253.91875 1145.390625 2300.871875 1203.28125 2300.871875 1261.210938 2300.871875 1308.164063 2253.91875 1308.164063 2196.028125zM1308.164063 1738.371875C1308.164063 1680.442187 1261.210938 1633.528125 1203.28125 1633.528125 1145.390625 1633.528125 1098.4375 1680.442187 1098.4375 1738.371875 1098.4375 1796.301562 1145.390625 1843.254687 1203.28125 1843.254687 1261.210938 1843.254687 1308.164063 1796.301562 1308.164063 1738.371875zM1308.164063 1280.754687C1308.164063 1222.825 1261.210938 1175.871875 1203.28125 1175.871875 1145.390625 1175.871875 1098.4375 1222.825 1098.4375 1280.754687 1098.4375 1338.684375 1145.390625 1385.6375 1203.28125 1385.6375 1261.210938 1385.6375 1308.164063 1338.684375 1308.164063 1280.754687zM1308.164063 823.1375C1308.164063 765.207812 1261.210938 718.254687 1203.28125 718.254687 1145.390625 718.254687 1098.4375 765.207812 1098.4375 823.1375 1098.4375 881.028125 1145.390625 928.020312 1203.28125 928.020312 1261.210938 928.020312 1308.164063 881.028125 1308.164063 823.1375zM1308.164063 823.1375" transform="matrix(.1 0 0 -.1 0 420.72)" fill="#ffed0b" stroke-width="13.097" stroke="#000" stroke-miterlimit="10" />
  <path d="M 130.816406 384.167969 C 130.816406 389.960938 126.121094 394.65625 120.328125 394.65625 C 114.539063 394.65625 109.84375 389.960938 109.84375 384.167969 C 109.84375 378.378906 114.539063 373.683594 120.328125 373.683594 C 126.121094 373.683594 130.816406 378.378906 130.816406 384.167969 Z M 130.816406 384.167969" fill="#ffed0b" />
  <g clip-path="url(#svg809139094679tikz_00007l)">
    <path d="M 1308.164063 365.520312 C 1308.164063 307.590625 1261.210938 260.6375 1203.28125 260.6375 C 1145.390625 260.6375 1098.4375 307.590625 1098.4375 365.520312 C 1098.4375 423.410937 1145.390625 470.364062 1203.28125 470.364062 C 1261.210938 470.364062 1308.164063 423.410937 1308.164063 365.520312 Z M 1308.164063 365.520312" transform="matrix(.1 0 0 -.1 0 420.72)" fill="none" stroke-width="13.097" stroke="#000" stroke-miterlimit="10" />
  </g>
  <path d="M21.511719 66.671875C21.34375 66.882813 21.066406 67.25 20.6875 67.25 20.53125 67.25 20.476563 67.160156 20.476563 67.039063 20.476563 66.902344 20.496094 66.773438 20.496094 66.773438L21.132813 64.191406C21.167969 64.035156 21.234375 63.660156 21.234375 63.367188 21.234375 62.96875 21.066406 62.574219 20.496094 62.574219 19.179688 62.574219 18.234375 64.191406 17.765625 65.03125L17.675781 65.03125 18.234375 62.609375 17.988281 62.609375 16.4375 62.730469 16.4375 63.035156C16.4375 63.035156 16.660156 63.011719 16.804688 63.011719 17.0625 63.011719 17.160156 63.121094 17.160156 63.3125 17.160156 63.480469 17.128906 63.679688 17.128906 63.679688L16.226563 67.921875 17.140625 67.921875 17.539063 66.15625C17.898438 65.386719 19.125 63.378906 19.9375 63.378906 20.195313 63.378906 20.273438 63.566406 20.273438 63.824219 20.273438 64.046875 20.195313 64.359375 20.195313 64.359375L19.539063 66.9375C19.527344 66.992188 19.480469 67.195313 19.480469 67.371094 19.480469 67.707031 19.648438 68.03125 20.207031 68.03125 21.011719 68.03125 21.457031 67.25 21.746094 66.835938L21.511719 66.671875M32.742188 64.273438L32.742188 63.515625 26.09375 63.515625 26.09375 64.273438zM32.742188 66.546875L32.742188 65.800781 26.09375 65.800781 26.09375 66.546875 32.742188 66.546875M41.351563 67.921875L41.351563 67.605469C40.328125 67.605469 39.914063 67.40625 39.914063 66.859375L39.914063 60.792969 39.589844 60.792969 37.425781 61.402344 37.425781 61.773438C37.773438 61.660156 38.339844 61.59375 38.5625 61.59375 38.84375 61.59375 38.929688 61.75 38.929688 62.140625L38.929688 66.859375C38.929688 67.417969 38.539063 67.605469 37.492188 67.605469L37.492188 67.921875 41.351563 67.921875M21.511719 111.269531C21.34375 111.480469 21.066406 111.851563 20.6875 111.851563 20.53125 111.851563 20.476563 111.761719 20.476563 111.640625 20.476563 111.503906 20.496094 111.371094 20.496094 111.371094L21.132813 108.792969C21.167969 108.636719 21.234375 108.257813 21.234375 107.96875 21.234375 107.566406 21.066406 107.175781 20.496094 107.175781 19.179688 107.175781 18.234375 108.792969 17.765625 109.632813L17.675781 109.632813 18.234375 107.210938 17.988281 107.210938 16.4375 107.332031 16.4375 107.632813C16.4375 107.632813 16.660156 107.609375 16.804688 107.609375 17.0625 107.609375 17.160156 107.722656 17.160156 107.910156 17.160156 108.078125 17.128906 108.28125 17.128906 108.28125L16.226563 112.519531 17.140625 112.519531 17.539063 110.757813C17.898438 109.988281 19.125 107.980469 19.9375 107.980469 20.195313 107.980469 20.273438 108.167969 20.273438 108.425781 20.273438 108.648438 20.195313 108.960938 20.195313 108.960938L19.539063 111.539063C19.527344 111.59375 19.480469 111.796875 19.480469 111.972656 19.480469 112.308594 19.648438 112.632813 20.207031 112.632813 21.011719 112.632813 21.457031 111.851563 21.746094 111.4375L21.511719 111.269531M32.742188 108.871094L32.742188 108.113281 26.09375 108.113281 26.09375 108.871094zM32.742188 111.148438L32.742188 110.398438 26.09375 110.398438 26.09375 111.148438 32.742188 111.148438M41.777344 110.734375L41.453125 110.734375C41.195313 111.402344 41.050781 111.640625 40.460938 111.640625L38.910156 111.640625 38.128906 111.671875 38.128906 111.617188 39.601563 110.222656C40.785156 109.027344 41.417969 108.257813 41.417969 107.265625 41.417969 106.09375 40.539063 105.335938 39.277344 105.335938 38.195313 105.335938 37.4375 105.960938 37.089844 107.042969L37.359375 107.152344C37.773438 106.316406 38.261719 106.0625 38.988281 106.0625 39.847656 106.0625 40.382813 106.597656 40.382813 107.433594 40.382813 108.605469 39.824219 109.308594 38.71875 110.445313L37.023438 112.140625 37.023438 112.519531 41.417969 112.519531 41.777344 110.734375M21.511719 157.671875C21.34375 157.882813 21.066406 158.25 20.6875 158.25 20.53125 158.25 20.476563 158.160156 20.476563 158.039063 20.476563 157.902344 20.496094 157.773438 20.496094 157.773438L21.132813 155.191406C21.167969 155.035156 21.234375 154.660156 21.234375 154.367188 21.234375 153.96875 21.066406 153.574219 20.496094 153.574219 19.179688 153.574219 18.234375 155.191406 17.765625 156.03125L17.675781 156.03125 18.234375 153.609375 17.988281 153.609375 16.4375 153.730469 16.4375 154.035156C16.4375 154.035156 16.660156 154.011719 16.804688 154.011719 17.0625 154.011719 17.160156 154.121094 17.160156 154.3125 17.160156 154.480469 17.128906 154.679688 17.128906 154.679688L16.226563 158.921875 17.140625 158.921875 17.539063 157.15625C17.898438 156.386719 19.125 154.378906 19.9375 154.378906 20.195313 154.378906 20.273438 154.566406 20.273438 154.824219 20.273438 155.046875 20.195313 155.359375 20.195313 155.359375L19.539063 157.9375C19.527344 157.992188 19.480469 158.195313 19.480469 158.371094 19.480469 158.707031 19.648438 159.03125 20.207031 159.03125 21.011719 159.03125 21.457031 158.25 21.746094 157.835938L21.511719 157.671875M32.742188 155.273438L32.742188 154.515625 26.09375 154.515625 26.09375 155.273438zM32.742188 157.546875L32.742188 156.800781 26.09375 156.800781 26.09375 157.546875 32.742188 157.546875M37.558594 153.363281C37.9375 152.773438 38.351563 152.460938 39.019531 152.460938 39.710938 152.460938 40.160156 152.839844 40.160156 153.496094 40.160156 154.402344 39.367188 155.015625 38.609375 155.015625L38.398438 155.015625 38.398438 155.4375 38.617188 155.4375C39.691406 155.4375 40.640625 156.097656 40.640625 157.089844 40.640625 158.183594 39.957031 158.507813 39.253906 158.507813 38.988281 158.507813 38.832031 158.460938 38.351563 158.21875 37.960938 158.015625 37.871094 157.960938 37.695313 157.960938 37.402344 157.960938 37.257813 158.21875 37.257813 158.449219 37.257813 158.742188 37.503906 159.066406 38.507813 159.066406 40.136719 159.066406 41.554688 158.285156 41.554688 156.757813 41.554688 155.761719 40.804688 155.171875 39.914063 154.890625L39.914063 154.859375C40.617188 154.410156 41.117188 154 41.117188 153.230469 41.117188 152.382813 40.460938 151.734375 39.320313 151.734375 38.40625 151.734375 37.714844 152.246094 37.304688 153.21875L37.558594 153.363281M21.511719 204.171875C21.34375 204.382813 21.066406 204.75 20.6875 204.75 20.53125 204.75 20.476563 204.660156 20.476563 204.539063 20.476563 204.402344 20.496094 204.273438 20.496094 204.273438L21.132813 201.691406C21.167969 201.535156 21.234375 201.160156 21.234375 200.867188 21.234375 200.46875 21.066406 200.074219 20.496094 200.074219 19.179688 200.074219 18.234375 201.691406 17.765625 202.53125L17.675781 202.53125 18.234375 200.109375 17.988281 200.109375 16.4375 200.230469 16.4375 200.535156C16.4375 200.535156 16.660156 200.511719 16.804688 200.511719 17.0625 200.511719 17.160156 200.621094 17.160156 200.8125 17.160156 200.980469 17.128906 201.179688 17.128906 201.179688L16.226563 205.421875 17.140625 205.421875 17.539063 203.65625C17.898438 202.886719 19.125 200.878906 19.9375 200.878906 20.195313 200.878906 20.273438 201.066406 20.273438 201.324219 20.273438 201.546875 20.195313 201.859375 20.195313 201.859375L19.539063 204.4375C19.527344 204.492188 19.480469 204.695313 19.480469 204.871094 19.480469 205.207031 19.648438 205.53125 20.207031 205.53125 21.011719 205.53125 21.457031 204.75 21.746094 204.335938L21.511719 204.171875M32.742188 201.773438L32.742188 201.015625 26.09375 201.015625 26.09375 201.773438zM32.742188 204.046875L32.742188 203.300781 26.09375 203.300781 26.09375 204.046875 32.742188 204.046875M41.964844 203.65625L41.964844 202.886719 40.828125 202.886719 40.828125 198.226563 40.148438 198.226563 36.746094 202.953125 36.746094 203.65625 39.835938 203.65625 39.835938 205.421875 40.828125 205.421875 40.828125 203.65625zM39.835938 202.886719L37.359375 202.886719 37.359375 202.84375 39.789063 199.441406 39.835938 199.441406 39.835938 202.886719M21.511719 249.570313C21.34375 249.78125 21.066406 250.152344 20.6875 250.152344 20.53125 250.152344 20.476563 250.0625 20.476563 249.9375 20.476563 249.804688 20.496094 249.671875 20.496094 249.671875L21.132813 247.09375C21.167969 246.9375 21.234375 246.558594 21.234375 246.269531 21.234375 245.867188 21.066406 245.476563 20.496094 245.476563 19.179688 245.476563 18.234375 247.09375 17.765625 247.929688L17.675781 247.929688 18.234375 245.507813 17.988281 245.507813 16.4375 245.632813 16.4375 245.933594C16.4375 245.933594 16.660156 245.910156 16.804688 245.910156 17.0625 245.910156 17.160156 246.023438 17.160156 246.210938 17.160156 246.378906 17.128906 246.582031 17.128906 246.582031L16.226563 250.820313 17.140625 250.820313 17.539063 249.058594C17.898438 248.285156 19.125 246.277344 19.9375 246.277344 20.195313 246.277344 20.273438 246.46875 20.273438 246.726563 20.273438 246.949219 20.195313 247.261719 20.195313 247.261719L19.539063 249.839844C19.527344 249.894531 19.480469 250.09375 19.480469 250.273438 19.480469 250.605469 19.648438 250.929688 20.207031 250.929688 21.011719 250.929688 21.457031 250.152344 21.746094 249.738281L21.511719 249.570313M32.742188 247.171875L32.742188 246.414063 26.09375 246.414063 26.09375 247.171875zM32.742188 249.449219L32.742188 248.699219 26.09375 248.699219 26.09375 249.449219 32.742188 249.449219M41.25 244.695313L41.429688 243.792969 38.375 243.792969 37.683594 246.703125 37.816406 246.871094C37.972656 246.871094 38.027344 246.871094 38.320313 246.894531 39.859375 246.972656 40.726563 247.429688 40.726563 248.824219 40.726563 249.980469 40.023438 250.40625 39.234375 250.40625 38.519531 250.40625 38.148438 249.859375 37.703125 249.859375 37.425781 249.859375 37.257813 250.085938 37.257813 250.339844 37.257813 250.753906 37.683594 250.964844 38.539063 250.964844 40.316406 250.964844 41.542969 250.09375 41.542969 248.375 41.542969 246.625 40.171875 246.101563 38.851563 246L38.328125 245.96875 38.628906 244.695313 41.25 244.695313M21.511719 295.171875C21.34375 295.382813 21.066406 295.75 20.6875 295.75 20.53125 295.75 20.476563 295.660156 20.476563 295.539063 20.476563 295.402344 20.496094 295.273438 20.496094 295.273438L21.132813 292.691406C21.167969 292.535156 21.234375 292.160156 21.234375 291.867188 21.234375 291.46875 21.066406 291.074219 20.496094 291.074219 19.179688 291.074219 18.234375 292.691406 17.765625 293.53125L17.675781 293.53125 18.234375 291.109375 17.988281 291.109375 16.4375 291.230469 16.4375 291.535156C16.4375 291.535156 16.660156 291.511719 16.804688 291.511719 17.0625 291.511719 17.160156 291.621094 17.160156 291.8125 17.160156 291.980469 17.128906 292.179688 17.128906 292.179688L16.226563 296.421875 17.140625 296.421875 17.539063 294.65625C17.898438 293.886719 19.125 291.878906 19.9375 291.878906 20.195313 291.878906 20.273438 292.066406 20.273438 292.324219 20.273438 292.546875 20.195313 292.859375 20.195313 292.859375L19.539063 295.4375C19.527344 295.492188 19.480469 295.695313 19.480469 295.871094 19.480469 296.207031 19.648438 296.53125 20.207031 296.53125 21.011719 296.53125 21.457031 295.75 21.746094 295.335938L21.511719 295.171875M32.742188 292.773438L32.742188 292.015625 26.09375 292.015625 26.09375 292.773438zM32.742188 295.046875L32.742188 294.300781 26.09375 294.300781 26.09375 295.046875 32.742188 295.046875M41.230469 289.214844C38.832031 289.3125 37.101563 290.863281 37.101563 293.554688 37.101563 295.191406 37.828125 296.554688 39.488281 296.554688 40.894531 296.554688 41.699219 295.671875 41.699219 294.15625 41.699219 292.691406 40.90625 291.8125 39.691406 291.8125 39.109375 291.8125 38.695313 292.058594 38.242188 292.503906L38.164063 292.492188C38.441406 290.863281 39.691406 289.773438 41.25 289.535156zM40.726563 294.246094C40.726563 295.660156 40.28125 296.164063 39.535156 296.164063 38.5625 296.164063 38.105469 295.171875 38.105469 293.785156 38.105469 292.816406 38.707031 292.460938 39.355469 292.460938 40.28125 292.460938 40.726563 293.238281 40.726563 294.246094M21.511719 341.46875C21.34375 341.683594 21.066406 342.050781 20.6875 342.050781 20.53125 342.050781 20.476563 341.960938 20.476563 341.839844 20.476563 341.703125 20.496094 341.570313 20.496094 341.570313L21.132813 338.992188C21.167969 338.835938 21.234375 338.460938 21.234375 338.167969 21.234375 337.765625 21.066406 337.375 20.496094 337.375 19.179688 337.375 18.234375 338.992188 17.765625 339.832031L17.675781 339.832031 18.234375 337.410156 17.988281 337.410156 16.4375 337.53125 16.4375 337.835938C16.4375 337.835938 16.660156 337.8125 16.804688 337.8125 17.0625 337.8125 17.160156 337.921875 17.160156 338.113281 17.160156 338.28125 17.128906 338.480469 17.128906 338.480469L16.226563 342.71875 17.140625 342.71875 17.539063 340.957031C17.898438 340.1875 19.125 338.179688 19.9375 338.179688 20.195313 338.179688 20.273438 338.367188 20.273438 338.625 20.273438 338.847656 20.195313 339.160156 20.195313 339.160156L19.539063 341.738281C19.527344 341.792969 19.480469 341.996094 19.480469 342.171875 19.480469 342.507813 19.648438 342.832031 20.207031 342.832031 21.011719 342.832031 21.457031 342.050781 21.746094 341.636719L21.511719 341.46875M32.742188 339.070313L32.742188 338.3125 26.09375 338.3125 26.09375 339.070313zM32.742188 341.347656L32.742188 340.601563 26.09375 340.601563 26.09375 341.347656 32.742188 341.347656M41.777344 336.039063L41.777344 335.691406 37.515625 335.691406 37.070313 337.398438 37.414063 337.433594C37.714844 336.707031 37.804688 336.59375 38.429688 336.59375L40.917969 336.59375 38.285156 342.808594 39.164063 342.808594 41.777344 336.039063M21.511719 386.171875C21.34375 386.382813 21.066406 386.75 20.6875 386.75 20.53125 386.75 20.476563 386.660156 20.476563 386.539063 20.476563 386.40625 20.496094 386.273438 20.496094 386.273438L21.132813 383.695313C21.167969 383.539063 21.234375 383.160156 21.234375 382.867188 21.234375 382.46875 21.066406 382.078125 20.496094 382.078125 19.179688 382.078125 18.234375 383.695313 17.765625 384.53125L17.675781 384.53125 18.234375 382.109375 17.988281 382.109375 16.4375 382.234375 16.4375 382.535156C16.4375 382.535156 16.660156 382.511719 16.804688 382.511719 17.0625 382.511719 17.160156 382.625 17.160156 382.8125 17.160156 382.980469 17.128906 383.179688 17.128906 383.179688L16.226563 387.421875 17.140625 387.421875 17.539063 385.65625C17.898438 384.886719 19.125 382.878906 19.9375 382.878906 20.195313 382.878906 20.273438 383.070313 20.273438 383.328125 20.273438 383.546875 20.195313 383.859375 20.195313 383.859375L19.539063 386.4375C19.527344 386.492188 19.480469 386.695313 19.480469 386.875 19.480469 387.207031 19.648438 387.53125 20.207031 387.53125 21.011719 387.53125 21.457031 386.75 21.746094 386.335938L21.511719 386.171875M32.742188 383.773438L32.742188 383.015625 26.09375 383.015625 26.09375 383.773438zM32.742188 386.046875L32.742188 385.300781 26.09375 385.300781 26.09375 386.046875 32.742188 386.046875M41.597656 385.746094C41.597656 384.855469 41.195313 384.320313 39.890625 383.527344L39.890625 383.492188C40.929688 382.925781 41.328125 382.554688 41.328125 381.742188 41.328125 380.859375 40.484375 380.203125 39.378906 380.203125 38.148438 380.203125 37.257813 380.835938 37.257813 381.851563 37.257813 382.613281 37.503906 383.070313 38.640625 383.859375L38.640625 383.894531C37.605469 384.585938 37.113281 384.945313 37.113281 385.835938 37.113281 386.972656 38.050781 387.554688 39.34375 387.554688 40.671875 387.554688 41.597656 386.917969 41.597656 385.746094zM40.503906 381.71875C40.503906 382.433594 40.28125 382.867188 39.546875 383.3125 38.554688 382.710938 38.128906 382.3125 38.128906 381.652344 38.128906 380.972656 38.597656 380.570313 39.355469 380.570313 40.070313 380.570313 40.503906 380.984375 40.503906 381.71875zM38.976563 384.074219C40.328125 384.945313 40.660156 385.355469 40.660156 386.070313 40.660156 386.828125 40.082031 387.207031 39.390625 387.207031 38.539063 387.207031 37.984375 386.75 37.984375 385.746094 37.984375 384.976563 38.339844 384.585938 38.976563 384.074219M119.753906 67.820313L119.753906 67.507813C118.726563 67.507813 118.3125 67.308594 118.3125 66.761719L118.3125 60.691406 117.992188 60.691406 115.824219 61.304688 115.824219 61.671875C116.171875 61.5625 116.742188 61.496094 116.964844 61.496094 117.242188 61.496094 117.332031 61.652344 117.332031 62.039063L117.332031 66.761719C117.332031 67.316406 116.941406 67.507813 115.890625 67.507813L115.890625 67.820313 119.753906 67.820313M120.933594 65.988281L120.96875 67.910156 121.203125 67.910156 121.4375 67.652344 121.460938 67.652344C121.75 67.773438 122.085938 67.941406 122.730469 67.941406 123.734375 67.941406 124.605469 67.539063 124.605469 66.492188 124.605469 65.667969 124.058594 65.253906 123.042969 64.71875 122.105469 64.238281 121.738281 63.960938 121.738281 63.523438 121.738281 63.023438 122.128906 62.789063 122.640625 62.789063 123.320313 62.789063 123.734375 63.113281 123.980469 64.171875L124.28125 64.171875 124.246094 62.464844 124.023438 62.464844 123.835938 62.699219 123.824219 62.699219C123.546875 62.566406 123.210938 62.410156 122.652344 62.410156 121.695313 62.410156 120.945313 62.898438 120.945313 63.816406 120.945313 64.640625 121.402344 65.03125 122.417969 65.542969 123.457031 66.058594 123.667969 66.269531 123.667969 66.792969 123.667969 67.316406 123.265625 67.527344 122.710938 67.527344 121.882813 67.527344 121.460938 67.140625 121.226563 65.988281L120.933594 65.988281M120.175781 110.734375L119.851563 110.734375C119.597656 111.402344 119.453125 111.640625 118.859375 111.640625L117.308594 111.640625 116.527344 111.671875 116.527344 111.617188 118.003906 110.222656C119.183594 109.027344 119.820313 108.257813 119.820313 107.265625 119.820313 106.09375 118.9375 105.335938 117.679688 105.335938 116.59375 105.335938 115.839844 105.960938 115.492188 107.042969L115.757813 107.152344C116.171875 106.316406 116.664063 106.0625 117.386719 106.0625 118.246094 106.0625 118.78125 106.597656 118.78125 107.433594 118.78125 108.605469 118.222656 109.308594 117.121094 110.445313L115.421875 112.140625 115.421875 112.519531 119.820313 112.519531 120.175781 110.734375M120.933594 110.691406L120.96875 112.609375 121.203125 112.609375 121.4375 112.351563 121.460938 112.351563C121.75 112.476563 122.085938 112.644531 122.730469 112.644531 123.734375 112.644531 124.605469 112.238281 124.605469 111.191406 124.605469 110.367188 124.058594 109.953125 123.042969 109.417969 122.105469 108.9375 121.738281 108.660156 121.738281 108.226563 121.738281 107.722656 122.128906 107.488281 122.640625 107.488281 123.320313 107.488281 123.734375 107.8125 123.980469 108.871094L124.28125 108.871094 124.246094 107.164063 124.023438 107.164063 123.835938 107.398438 123.824219 107.398438C123.546875 107.265625 123.210938 107.109375 122.652344 107.109375 121.695313 107.109375 120.945313 107.601563 120.945313 108.515625 120.945313 109.339844 121.402344 109.730469 122.417969 110.242188 123.457031 110.757813 123.667969 110.96875 123.667969 111.492188 123.667969 112.019531 123.265625 112.230469 122.710938 112.230469 121.882813 112.230469 121.460938 111.839844 121.226563 110.691406L120.933594 110.691406M115.960938 153.363281C116.339844 152.773438 116.753906 152.460938 117.421875 152.460938 118.113281 152.460938 118.558594 152.839844 118.558594 153.496094 118.558594 154.402344 117.765625 155.015625 117.007813 155.015625L116.796875 155.015625 116.796875 155.4375 117.019531 155.4375C118.089844 155.4375 119.039063 156.097656 119.039063 157.089844 119.039063 158.183594 118.359375 158.507813 117.65625 158.507813 117.386719 158.507813 117.230469 158.460938 116.753906 158.21875 116.359375 158.015625 116.273438 157.960938 116.09375 157.960938 115.804688 157.960938 115.65625 158.21875 115.65625 158.449219 115.65625 158.742188 115.902344 159.066406 116.90625 159.066406 118.535156 159.066406 119.953125 158.285156 119.953125 156.757813 119.953125 155.761719 119.207031 155.171875 118.3125 154.890625L118.3125 154.859375C119.015625 154.410156 119.519531 154 119.519531 153.230469 119.519531 152.382813 118.859375 151.734375 117.722656 151.734375 116.808594 151.734375 116.117188 152.246094 115.703125 153.21875L115.960938 153.363281M120.933594 157.089844L120.96875 159.007813 121.203125 159.007813 121.4375 158.753906 121.460938 158.753906C121.75 158.875 122.085938 159.042969 122.730469 159.042969 123.734375 159.042969 124.605469 158.640625 124.605469 157.59375 124.605469 156.765625 124.058594 156.355469 123.042969 155.816406 122.105469 155.339844 121.738281 155.0625 121.738281 154.625 121.738281 154.121094 122.128906 153.890625 122.640625 153.890625 123.320313 153.890625 123.734375 154.210938 123.980469 155.273438L124.28125 155.273438 124.246094 153.566406 124.023438 153.566406 123.835938 153.800781 123.824219 153.800781C123.546875 153.664063 123.210938 153.507813 122.652344 153.507813 121.695313 153.507813 120.945313 154 120.945313 154.914063 120.945313 155.738281 121.402344 156.132813 122.417969 156.644531 123.457031 157.15625 123.667969 157.371094 123.667969 157.894531 123.667969 158.417969 123.265625 158.628906 122.710938 158.628906 121.882813 158.628906 121.460938 158.238281 121.226563 157.089844L120.933594 157.089844M120.367188 203.558594L120.367188 202.785156 119.226563 202.785156 119.226563 198.125 118.546875 198.125 115.144531 202.855469 115.144531 203.558594 118.234375 203.558594 118.234375 205.320313 119.226563 205.320313 119.226563 203.558594zM118.234375 202.785156L115.757813 202.785156 115.757813 202.742188 118.191406 199.339844 118.234375 199.339844 118.234375 202.785156M120.933594 203.488281L120.96875 205.410156 121.203125 205.410156 121.4375 205.152344 121.460938 205.152344C121.75 205.273438 122.085938 205.441406 122.730469 205.441406 123.734375 205.441406 124.605469 205.039063 124.605469 203.992188 124.605469 203.167969 124.058594 202.753906 123.042969 202.21875 122.105469 201.738281 121.738281 201.460938 121.738281 201.023438 121.738281 200.523438 122.128906 200.289063 122.640625 200.289063 123.320313 200.289063 123.734375 200.613281 123.980469 201.671875L124.28125 201.671875 124.246094 199.964844 124.023438 199.964844 123.835938 200.199219 123.824219 200.199219C123.546875 200.066406 123.210938 199.910156 122.652344 199.910156 121.695313 199.910156 120.945313 200.398438 120.945313 201.316406 120.945313 202.140625 121.402344 202.53125 122.417969 203.042969 123.457031 203.558594 123.667969 203.769531 123.667969 204.292969 123.667969 204.816406 123.265625 205.027344 122.710938 205.027344 121.882813 205.027344 121.460938 204.640625 121.226563 203.488281L120.933594 203.488281M119.652344 244.695313L119.832031 243.792969 116.773438 243.792969 116.082031 246.703125 116.214844 246.871094C116.371094 246.871094 116.429688 246.871094 116.71875 246.894531 118.257813 246.972656 119.128906 247.429688 119.128906 248.824219 119.128906 249.980469 118.425781 250.40625 117.632813 250.40625 116.917969 250.40625 116.550781 249.859375 116.105469 249.859375 115.824219 249.859375 115.65625 250.085938 115.65625 250.339844 115.65625 250.753906 116.082031 250.964844 116.941406 250.964844 118.714844 250.964844 119.941406 250.09375 119.941406 248.375 119.941406 246.625 118.570313 246.101563 117.253906 246L116.730469 245.96875 117.03125 244.695313 119.652344 244.695313M120.933594 248.988281L120.96875 250.910156 121.203125 250.910156 121.4375 250.652344 121.460938 250.652344C121.75 250.773438 122.085938 250.941406 122.730469 250.941406 123.734375 250.941406 124.605469 250.539063 124.605469 249.492188 124.605469 248.667969 124.058594 248.253906 123.042969 247.71875 122.105469 247.238281 121.738281 246.960938 121.738281 246.523438 121.738281 246.023438 122.128906 245.789063 122.640625 245.789063 123.320313 245.789063 123.734375 246.113281 123.980469 247.171875L124.28125 247.171875 124.246094 245.464844 124.023438 245.464844 123.835938 245.699219 123.824219 245.699219C123.546875 245.566406 123.210938 245.410156 122.652344 245.410156 121.695313 245.410156 120.945313 245.898438 120.945313 246.816406 120.945313 247.640625 121.402344 248.03125 122.417969 248.542969 123.457031 249.058594 123.667969 249.269531 123.667969 249.792969 123.667969 250.316406 123.265625 250.527344 122.710938 250.527344 121.882813 250.527344 121.460938 250.140625 121.226563 248.988281L120.933594 248.988281M119.628906 289.214844C117.230469 289.3125 115.503906 290.863281 115.503906 293.554688 115.503906 295.191406 116.226563 296.554688 117.890625 296.554688 119.296875 296.554688 120.097656 295.671875 120.097656 294.15625 120.097656 292.691406 119.304688 291.8125 118.089844 291.8125 117.511719 291.8125 117.097656 292.058594 116.640625 292.503906L116.5625 292.492188C116.839844 290.863281 118.089844 289.773438 119.652344 289.535156zM119.128906 294.246094C119.128906 295.660156 118.679688 296.164063 117.933594 296.164063 116.964844 296.164063 116.507813 295.171875 116.507813 293.785156 116.507813 292.816406 117.109375 292.460938 117.757813 292.460938 118.679688 292.460938 119.128906 293.238281 119.128906 294.246094M120.933594 294.589844L120.96875 296.507813 121.203125 296.507813 121.4375 296.253906 121.460938 296.253906C121.75 296.375 122.085938 296.542969 122.730469 296.542969 123.734375 296.542969 124.605469 296.140625 124.605469 295.09375 124.605469 294.265625 124.058594 293.855469 123.042969 293.316406 122.105469 292.839844 121.738281 292.5625 121.738281 292.125 121.738281 291.621094 122.128906 291.390625 122.640625 291.390625 123.320313 291.390625 123.734375 291.710938 123.980469 292.773438L124.28125 292.773438 124.246094 291.066406 124.023438 291.066406 123.835938 291.300781 123.824219 291.300781C123.546875 291.164063 123.210938 291.007813 122.652344 291.007813 121.695313 291.007813 120.945313 291.5 120.945313 292.414063 120.945313 293.238281 121.402344 293.632813 122.417969 294.144531 123.457031 294.65625 123.667969 294.871094 123.667969 295.394531 123.667969 295.917969 123.265625 296.128906 122.710938 296.128906 121.882813 296.128906 121.460938 295.738281 121.226563 294.589844L120.933594 294.589844M120.175781 336.039063L120.175781 335.691406 115.914063 335.691406 115.46875 337.398438 115.8125 337.433594C116.117188 336.707031 116.203125 336.59375 116.828125 336.59375L119.316406 336.59375 116.683594 342.808594 117.566406 342.808594 120.175781 336.039063M120.933594 340.890625L120.96875 342.808594 121.203125 342.808594 121.4375 342.554688 121.460938 342.554688C121.75 342.675781 122.085938 342.84375 122.730469 342.84375 123.734375 342.84375 124.605469 342.441406 124.605469 341.390625 124.605469 340.566406 124.058594 340.15625 123.042969 339.617188 122.105469 339.140625 121.738281 338.859375 121.738281 338.425781 121.738281 337.921875 122.128906 337.6875 122.640625 337.6875 123.320313 337.6875 123.734375 338.011719 123.980469 339.070313L124.28125 339.070313 124.246094 337.367188 124.023438 337.367188 123.835938 337.601563 123.824219 337.601563C123.546875 337.464844 123.210938 337.308594 122.652344 337.308594 121.695313 337.308594 120.945313 337.800781 120.945313 338.714844 120.945313 339.539063 121.402344 339.929688 122.417969 340.445313 123.457031 340.957031 123.667969 341.171875 123.667969 341.695313 123.667969 342.21875 123.265625 342.429688 122.710938 342.429688 121.882813 342.429688 121.460938 342.039063 121.226563 340.890625L120.933594 340.890625M119.996094 385.746094C119.996094 384.855469 119.597656 384.320313 118.289063 383.527344L118.289063 383.492188C119.328125 382.925781 119.730469 382.554688 119.730469 381.742188 119.730469 380.859375 118.882813 380.203125 117.777344 380.203125 116.550781 380.203125 115.65625 380.835938 115.65625 381.851563 115.65625 382.613281 115.902344 383.070313 117.042969 383.859375L117.042969 383.894531C116.003906 384.585938 115.511719 384.945313 115.511719 385.835938 115.511719 386.972656 116.449219 387.554688 117.742188 387.554688 119.070313 387.554688 119.996094 386.917969 119.996094 385.746094zM118.90625 381.71875C118.90625 382.433594 118.679688 382.867188 117.945313 383.3125 116.953125 382.710938 116.527344 382.3125 116.527344 381.652344 116.527344 380.972656 116.996094 380.570313 117.757813 380.570313 118.46875 380.570313 118.90625 380.984375 118.90625 381.71875zM117.378906 384.074219C118.726563 384.945313 119.0625 385.355469 119.0625 386.070313 119.0625 386.828125 118.480469 387.207031 117.789063 387.207031 116.941406 387.207031 116.382813 386.75 116.382813 385.746094 116.382813 384.976563 116.742188 384.585938 117.378906 384.074219M120.933594 385.589844L120.96875 387.507813 121.203125 387.507813 121.4375 387.253906 121.460938 387.253906C121.75 387.375 122.085938 387.542969 122.730469 387.542969 123.734375 387.542969 124.605469 387.140625 124.605469 386.09375 124.605469 385.265625 124.058594 384.855469 123.042969 384.320313 122.105469 383.839844 121.738281 383.5625 121.738281 383.125 121.738281 382.625 122.128906 382.390625 122.640625 382.390625 123.320313 382.390625 123.734375 382.710938 123.980469 383.773438L124.28125 383.773438 124.246094 382.066406 124.023438 382.066406 123.835938 382.300781 123.824219 382.300781C123.546875 382.164063 123.210938 382.007813 122.652344 382.007813 121.695313 382.007813 120.945313 382.5 120.945313 383.414063 120.945313 384.242188 121.402344 384.632813 122.417969 385.144531 123.457031 385.65625 123.667969 385.871094 123.667969 386.394531 123.667969 386.917969 123.265625 387.128906 122.710938 387.128906 121.882813 387.128906 121.460938 386.738281 121.226563 385.589844L120.933594 385.589844M198.277344 109.535156L197.953125 109.535156C197.695313 110.203125 197.550781 110.4375 196.960938 110.4375L195.410156 110.4375 194.628906 110.472656 194.628906 110.417969 196.101563 109.023438C197.285156 107.828125 197.917969 107.058594 197.917969 106.066406 197.917969 104.894531 197.039063 104.136719 195.777344 104.136719 194.695313 104.136719 193.9375 104.761719 193.589844 105.84375L193.859375 105.953125C194.273438 105.117188 194.761719 104.859375 195.488281 104.859375 196.347656 104.859375 196.882813 105.398438 196.882813 106.230469 196.882813 107.402344 196.324219 108.105469 195.21875 109.246094L193.523438 110.941406 193.523438 111.320313 197.917969 111.320313 198.277344 109.535156M200.664063 105.941406L200.382813 105.941406 198.980469 106.253906 198.980469 106.578125C198.980469 106.578125 199.191406 106.554688 199.335938 106.554688 199.703125 106.554688 199.757813 106.699219 199.757813 107.125L199.757813 112.648438C199.757813 113.273438 199.648438 113.460938 198.945313 113.460938L198.945313 113.773438 201.769531 113.773438 201.769531 113.449219C200.898438 113.449219 200.6875 113.304688 200.6875 112.582031L200.6875 111.117188 200.730469 111.117188C201.054688 111.34375 201.433594 111.429688 201.859375 111.429688 203.195313 111.429688 204.300781 110.304688 204.300781 108.40625 204.300781 106.945313 203.53125 105.910156 202.425781 105.910156 201.769531 105.910156 201.234375 106.253906 200.695313 106.878906L200.664063 106.878906zM200.6875 107.347656C200.898438 107.070313 201.378906 106.667969 201.96875 106.667969 202.792969 106.667969 203.285156 107.316406 203.285156 108.71875 203.285156 110.273438 202.695313 110.996094 201.914063 110.996094 201.289063 110.996094 200.898438 110.496094 200.6875 110.261719L200.6875 107.347656M194.058594 152.164063C194.4375 151.574219 194.851563 151.261719 195.519531 151.261719 196.214844 151.261719 196.660156 151.640625 196.660156 152.296875 196.660156 153.199219 195.867188 153.816406 195.109375 153.816406L194.898438 153.816406 194.898438 154.238281 195.117188 154.238281C196.191406 154.238281 197.140625 154.898438 197.140625 155.890625 197.140625 156.984375 196.457031 157.308594 195.753906 157.308594 195.488281 157.308594 195.332031 157.261719 194.851563 157.015625 194.460938 156.816406 194.371094 156.761719 194.195313 156.761719 193.902344 156.761719 193.757813 157.015625 193.757813 157.25 193.757813 157.542969 194.003906 157.863281 195.007813 157.863281 196.636719 157.863281 198.054688 157.085938 198.054688 155.554688 198.054688 154.5625 197.304688 153.972656 196.414063 153.691406L196.414063 153.660156C197.117188 153.210938 197.617188 152.800781 197.617188 152.03125 197.617188 151.183594 196.960938 150.535156 195.820313 150.535156 194.90625 150.535156 194.214844 151.046875 193.804688 152.019531L194.058594 152.164063M200.664063 152.34375L200.382813 152.34375 198.980469 152.652344 198.980469 152.976563C198.980469 152.976563 199.191406 152.957031 199.335938 152.957031 199.703125 152.957031 199.757813 153.101563 199.757813 153.523438L199.757813 159.046875C199.757813 159.671875 199.648438 159.863281 198.945313 159.863281L198.945313 160.175781 201.769531 160.175781 201.769531 159.851563C200.898438 159.851563 200.6875 159.707031 200.6875 158.980469L200.6875 157.519531 200.730469 157.519531C201.054688 157.742188 201.433594 157.832031 201.859375 157.832031 203.195313 157.832031 204.300781 156.703125 204.300781 154.808594 204.300781 153.347656 203.53125 152.308594 202.425781 152.308594 201.769531 152.308594 201.234375 152.652344 200.695313 153.277344L200.664063 153.277344zM200.6875 153.746094C200.898438 153.46875 201.378906 153.066406 201.96875 153.066406 202.792969 153.066406 203.285156 153.714844 203.285156 155.121094 203.285156 156.671875 202.695313 157.398438 201.914063 157.398438 201.289063 157.398438 200.898438 156.894531 200.6875 156.660156L200.6875 153.746094M198.464844 202.457031L198.464844 201.6875 197.328125 201.6875 197.328125 197.023438 196.648438 197.023438 193.246094 201.753906 193.246094 202.457031 196.335938 202.457031 196.335938 204.21875 197.328125 204.21875 197.328125 202.457031zM196.335938 201.6875L193.859375 201.6875 193.859375 201.644531 196.289063 198.238281 196.335938 198.238281 196.335938 201.6875M200.664063 198.84375L200.382813 198.84375 198.980469 199.152344 198.980469 199.476563C198.980469 199.476563 199.191406 199.457031 199.335938 199.457031 199.703125 199.457031 199.757813 199.601563 199.757813 200.023438L199.757813 205.546875C199.757813 206.171875 199.648438 206.363281 198.945313 206.363281L198.945313 206.675781 201.769531 206.675781 201.769531 206.351563C200.898438 206.351563 200.6875 206.207031 200.6875 205.480469L200.6875 204.019531 200.730469 204.019531C201.054688 204.242188 201.433594 204.332031 201.859375 204.332031 203.195313 204.332031 204.300781 203.203125 204.300781 201.308594 204.300781 199.847656 203.53125 198.808594 202.425781 198.808594 201.769531 198.808594 201.234375 199.152344 200.695313 199.777344L200.664063 199.777344zM200.6875 200.246094C200.898438 199.96875 201.378906 199.566406 201.96875 199.566406 202.792969 199.566406 203.285156 200.214844 203.285156 201.621094 203.285156 203.171875 202.695313 203.898438 201.914063 203.898438 201.289063 203.898438 200.898438 203.394531 200.6875 203.160156L200.6875 200.246094M197.753906 243.496094L197.929688 242.59375 194.871094 242.59375 194.183594 245.503906 194.316406 245.671875C194.472656 245.671875 194.527344 245.671875 194.820313 245.691406 196.359375 245.773438 197.226563 246.226563 197.226563 247.621094 197.226563 248.78125 196.523438 249.207031 195.734375 249.207031 195.019531 249.207031 194.648438 248.660156 194.203125 248.660156 193.925781 248.660156 193.757813 248.882813 193.757813 249.140625 193.757813 249.554688 194.183594 249.765625 195.039063 249.765625 196.816406 249.765625 198.042969 248.894531 198.042969 247.175781 198.042969 245.425781 196.671875 244.902344 195.351563 244.800781L194.828125 244.765625 195.128906 243.496094 197.753906 243.496094M200.664063 244.242188L200.382813 244.242188 198.980469 244.554688 198.980469 244.878906C198.980469 244.878906 199.191406 244.855469 199.335938 244.855469 199.703125 244.855469 199.757813 245 199.757813 245.425781L199.757813 250.949219C199.757813 251.574219 199.648438 251.761719 198.945313 251.761719L198.945313 252.074219 201.769531 252.074219 201.769531 251.75C200.898438 251.75 200.6875 251.605469 200.6875 250.882813L200.6875 249.417969 200.730469 249.417969C201.054688 249.640625 201.433594 249.730469 201.859375 249.730469 203.195313 249.730469 204.300781 248.605469 204.300781 246.707031 204.300781 245.246094 203.53125 244.210938 202.425781 244.210938 201.769531 244.210938 201.234375 244.554688 200.695313 245.179688L200.664063 245.179688zM200.6875 245.648438C200.898438 245.371094 201.378906 244.96875 201.96875 244.96875 202.792969 244.96875 203.285156 245.613281 203.285156 247.019531 203.285156 248.570313 202.695313 249.296875 201.914063 249.296875 201.289063 249.296875 200.898438 248.796875 200.6875 248.5625L200.6875 245.648438M197.730469 288.015625C195.332031 288.113281 193.601563 289.664063 193.601563 292.351563 193.601563 293.992188 194.328125 295.355469 195.988281 295.355469 197.394531 295.355469 198.199219 294.472656 198.199219 292.957031 198.199219 291.492188 197.40625 290.613281 196.191406 290.613281 195.609375 290.613281 195.195313 290.855469 194.742188 291.304688L194.664063 291.292969C194.941406 289.664063 196.191406 288.570313 197.753906 288.335938zM197.226563 293.046875C197.226563 294.460938 196.78125 294.964844 196.035156 294.964844 195.0625 294.964844 194.605469 293.96875 194.605469 292.585938 194.605469 291.617188 195.207031 291.257813 195.855469 291.257813 196.78125 291.257813 197.226563 292.039063 197.226563 293.046875M200.664063 289.84375L200.382813 289.84375 198.980469 290.152344 198.980469 290.476563C198.980469 290.476563 199.191406 290.457031 199.335938 290.457031 199.703125 290.457031 199.757813 290.601563 199.757813 291.023438L199.757813 296.546875C199.757813 297.171875 199.648438 297.363281 198.945313 297.363281L198.945313 297.675781 201.769531 297.675781 201.769531 297.351563C200.898438 297.351563 200.6875 297.207031 200.6875 296.480469L200.6875 295.019531 200.730469 295.019531C201.054688 295.242188 201.433594 295.332031 201.859375 295.332031 203.195313 295.332031 204.300781 294.203125 204.300781 292.308594 204.300781 290.847656 203.53125 289.808594 202.425781 289.808594 201.769531 289.808594 201.234375 290.152344 200.695313 290.777344L200.664063 290.777344zM200.6875 291.246094C200.898438 290.96875 201.378906 290.566406 201.96875 290.566406 202.792969 290.566406 203.285156 291.214844 203.285156 292.621094 203.285156 294.171875 202.695313 294.898438 201.914063 294.898438 201.289063 294.898438 200.898438 294.394531 200.6875 294.160156L200.6875 291.246094M198.277344 334.9375L198.277344 334.59375 194.015625 334.59375 193.570313 336.296875 193.914063 336.332031C194.214844 335.609375 194.304688 335.496094 194.929688 335.496094L197.417969 335.496094 194.785156 341.710938 195.664063 341.710938 198.277344 334.9375M200.664063 336.242188L200.382813 336.242188 198.980469 336.554688 198.980469 336.878906C198.980469 336.878906 199.191406 336.855469 199.335938 336.855469 199.703125 336.855469 199.757813 337 199.757813 337.425781L199.757813 342.949219C199.757813 343.574219 199.648438 343.761719 198.945313 343.761719L198.945313 344.074219 201.769531 344.074219 201.769531 343.75C200.898438 343.75 200.6875 343.605469 200.6875 342.882813L200.6875 341.417969 200.730469 341.417969C201.054688 341.640625 201.433594 341.730469 201.859375 341.730469 203.195313 341.730469 204.300781 340.605469 204.300781 338.707031 204.300781 337.246094 203.53125 336.210938 202.425781 336.210938 201.769531 336.210938 201.234375 336.554688 200.695313 337.179688L200.664063 337.179688zM200.6875 337.648438C200.898438 337.371094 201.378906 336.96875 201.96875 336.96875 202.792969 336.96875 203.285156 337.617188 203.285156 339.019531 203.285156 340.570313 202.695313 341.296875 201.914063 341.296875 201.289063 341.296875 200.898438 340.796875 200.6875 340.5625L200.6875 337.648438M273.960938 153.664063C274.339844 153.074219 274.753906 152.761719 275.421875 152.761719 276.113281 152.761719 276.558594 153.140625 276.558594 153.796875 276.558594 154.699219 275.765625 155.316406 275.007813 155.316406L274.796875 155.316406 274.796875 155.738281 275.019531 155.738281C276.089844 155.738281 277.039063 156.398438 277.039063 157.390625 277.039063 158.484375 276.359375 158.808594 275.65625 158.808594 275.386719 158.808594 275.230469 158.761719 274.753906 158.515625 274.359375 158.316406 274.273438 158.261719 274.09375 158.261719 273.804688 158.261719 273.65625 158.515625 273.65625 158.75 273.65625 159.042969 273.902344 159.363281 274.90625 159.363281 276.535156 159.363281 277.953125 158.585938 277.953125 157.054688 277.953125 156.0625 277.207031 155.472656 276.3125 155.191406L276.3125 155.160156C277.015625 154.710938 277.519531 154.300781 277.519531 153.53125 277.519531 152.683594 276.859375 152.035156 275.722656 152.035156 274.808594 152.035156 274.117188 152.546875 273.703125 153.519531L273.960938 153.664063M284.234375 159.019531L284.234375 158.71875 284 158.71875C283.589844 158.71875 283.441406 158.605469 283.441406 158.027344L283.441406 151.34375 283.140625 151.34375 281.734375 151.734375 281.734375 152.046875C281.734375 152.046875 281.925781 152.023438 282.023438 152.023438 282.460938 152.023438 282.515625 152.125 282.515625 152.613281L282.515625 154.074219C282.171875 153.886719 281.800781 153.808594 281.433594 153.808594 280.027344 153.808594 278.867188 154.9375 278.867188 156.777344 278.867188 158.203125 279.515625 159.308594 280.777344 159.308594 281.511719 159.308594 282.082031 158.886719 282.503906 158.507813L282.550781 158.507813 282.550781 159.277344 282.804688 159.277344zM282.515625 158.09375C282.128906 158.359375 281.824219 158.507813 281.300781 158.507813 280.351563 158.507813 279.839844 157.882813 279.839844 156.34375 279.839844 154.9375 280.476563 154.257813 281.414063 154.257813 282.101563 154.257813 282.425781 154.691406 282.515625 155.148438L282.515625 158.09375M278.367188 203.957031L278.367188 203.1875 277.226563 203.1875 277.226563 198.523438 276.546875 198.523438 273.144531 203.253906 273.144531 203.957031 276.234375 203.957031 276.234375 205.71875 277.226563 205.71875 277.226563 203.957031zM276.234375 203.1875L273.757813 203.1875 273.757813 203.144531 276.191406 199.738281 276.234375 199.738281 276.234375 203.1875M284.234375 205.519531L284.234375 205.21875 284 205.21875C283.589844 205.21875 283.441406 205.105469 283.441406 204.527344L283.441406 197.84375 283.140625 197.84375 281.734375 198.234375 281.734375 198.546875C281.734375 198.546875 281.925781 198.523438 282.023438 198.523438 282.460938 198.523438 282.515625 198.625 282.515625 199.113281L282.515625 200.574219C282.171875 200.386719 281.800781 200.308594 281.433594 200.308594 280.027344 200.308594 278.867188 201.4375 278.867188 203.277344 278.867188 204.703125 279.515625 205.808594 280.777344 205.808594 281.511719 205.808594 282.082031 205.386719 282.503906 205.007813L282.550781 205.007813 282.550781 205.777344 282.804688 205.777344zM282.515625 204.59375C282.128906 204.859375 281.824219 205.007813 281.300781 205.007813 280.351563 205.007813 279.839844 204.382813 279.839844 202.84375 279.839844 201.4375 280.476563 200.757813 281.414063 200.757813 282.101563 200.757813 282.425781 201.191406 282.515625 201.648438L282.515625 204.59375M277.652344 245.09375L277.832031 244.191406 274.773438 244.191406 274.082031 247.101563 274.214844 247.269531C274.371094 247.269531 274.429688 247.269531 274.71875 247.292969 276.257813 247.371094 277.128906 247.828125 277.128906 249.222656 277.128906 250.382813 276.425781 250.808594 275.632813 250.808594 274.917969 250.808594 274.550781 250.261719 274.105469 250.261719 273.824219 250.261719 273.65625 250.484375 273.65625 250.738281 273.65625 251.152344 274.082031 251.363281 274.941406 251.363281 276.714844 251.363281 277.941406 250.496094 277.941406 248.777344 277.941406 247.023438 276.570313 246.5 275.253906 246.402344L274.730469 246.367188 275.03125 245.09375 277.652344 245.09375M284.234375 251.019531L284.234375 250.71875 284 250.71875C283.589844 250.71875 283.441406 250.605469 283.441406 250.027344L283.441406 243.34375 283.140625 243.34375 281.734375 243.734375 281.734375 244.046875C281.734375 244.046875 281.925781 244.023438 282.023438 244.023438 282.460938 244.023438 282.515625 244.125 282.515625 244.613281L282.515625 246.074219C282.171875 245.886719 281.800781 245.808594 281.433594 245.808594 280.027344 245.808594 278.867188 246.9375 278.867188 248.777344 278.867188 250.203125 279.515625 251.308594 280.777344 251.308594 281.511719 251.308594 282.082031 250.886719 282.503906 250.507813L282.550781 250.507813 282.550781 251.277344 282.804688 251.277344zM282.515625 250.09375C282.128906 250.359375 281.824219 250.507813 281.300781 250.507813 280.351563 250.507813 279.839844 249.882813 279.839844 248.34375 279.839844 246.9375 280.476563 246.257813 281.414063 246.257813 282.101563 246.257813 282.425781 246.691406 282.515625 247.148438L282.515625 250.09375M277.628906 289.515625C275.230469 289.613281 273.503906 291.164063 273.503906 293.851563 273.503906 295.492188 274.226563 296.855469 275.890625 296.855469 277.296875 296.855469 278.097656 295.972656 278.097656 294.457031 278.097656 292.992188 277.304688 292.113281 276.089844 292.113281 275.511719 292.113281 275.097656 292.355469 274.640625 292.804688L274.5625 292.792969C274.839844 291.164063 276.089844 290.070313 277.652344 289.835938zM277.128906 294.546875C277.128906 295.960938 276.679688 296.464844 275.933594 296.464844 274.964844 296.464844 274.507813 295.46875 274.507813 294.085938 274.507813 293.117188 275.109375 292.757813 275.757813 292.757813 276.679688 292.757813 277.128906 293.539063 277.128906 294.546875M284.234375 296.519531L284.234375 296.21875 284 296.21875C283.589844 296.21875 283.441406 296.105469 283.441406 295.527344L283.441406 288.84375 283.140625 288.84375 281.734375 289.234375 281.734375 289.546875C281.734375 289.546875 281.925781 289.523438 282.023438 289.523438 282.460938 289.523438 282.515625 289.625 282.515625 290.113281L282.515625 291.574219C282.171875 291.386719 281.800781 291.308594 281.433594 291.308594 280.027344 291.308594 278.867188 292.4375 278.867188 294.277344 278.867188 295.703125 279.515625 296.808594 280.777344 296.808594 281.511719 296.808594 282.082031 296.386719 282.503906 296.007813L282.550781 296.007813 282.550781 296.777344 282.804688 296.777344zM282.515625 295.59375C282.128906 295.859375 281.824219 296.007813 281.300781 296.007813 280.351563 296.007813 279.839844 295.382813 279.839844 293.84375 279.839844 292.4375 280.476563 291.757813 281.414063 291.757813 282.101563 291.757813 282.425781 292.191406 282.515625 292.648438L282.515625 295.59375M356.765625 204.058594L356.765625 203.285156 355.628906 203.285156 355.628906 198.625 354.949219 198.625 351.546875 203.355469 351.546875 204.058594 354.636719 204.058594 354.636719 205.820313 355.628906 205.820313 355.628906 204.058594zM354.636719 203.285156L352.160156 203.285156 352.160156 203.242188 354.589844 199.839844 354.636719 199.839844 354.636719 203.285156M357.191406 200.542969L357.191406 201.011719 358.039063 201.011719 358.039063 204.492188C358.039063 205.363281 357.914063 205.496094 357.101563 205.496094L357.101563 205.820313 360.101563 205.820313 360.101563 205.496094C359.175781 205.496094 358.964844 205.363281 358.964844 204.492188L358.964844 201.011719 360.324219 201.011719 360.324219 200.542969 358.964844 200.542969 358.964844 199.550781C358.964844 198.613281 359.085938 198.277344 359.5 198.277344 360.058594 198.277344 360.113281 199.125 360.671875 199.125 360.929688 199.125 361.128906 198.96875 361.128906 198.648438 361.128906 198.144531 360.601563 197.863281 359.878906 197.863281 359.097656 197.863281 358.695313 198.167969 358.394531 198.679688 358.105469 199.191406 358.039063 199.695313 358.039063 200.542969L357.191406 200.542969M356.050781 245.09375L356.230469 244.191406 353.171875 244.191406 352.484375 247.101563 352.617188 247.269531C352.773438 247.269531 352.828125 247.269531 353.117188 247.292969 354.65625 247.371094 355.527344 247.828125 355.527344 249.222656 355.527344 250.382813 354.824219 250.808594 354.03125 250.808594 353.320313 250.808594 352.949219 250.261719 352.503906 250.261719 352.226563 250.261719 352.058594 250.484375 352.058594 250.738281 352.058594 251.152344 352.484375 251.363281 353.339844 251.363281 355.117188 251.363281 356.34375 250.496094 356.34375 248.777344 356.34375 247.023438 354.96875 246.5 353.652344 246.402344L353.128906 246.367188 353.429688 245.09375 356.050781 245.09375M357.191406 245.941406L357.191406 246.410156 358.039063 246.410156 358.039063 249.890625C358.039063 250.761719 357.914063 250.898438 357.101563 250.898438L357.101563 251.21875 360.101563 251.21875 360.101563 250.898438C359.175781 250.898438 358.964844 250.761719 358.964844 249.890625L358.964844 246.410156 360.324219 246.410156 360.324219 245.941406 358.964844 245.941406 358.964844 244.949219C358.964844 244.015625 359.085938 243.679688 359.5 243.679688 360.058594 243.679688 360.113281 244.527344 360.671875 244.527344 360.929688 244.527344 361.128906 244.371094 361.128906 244.046875 361.128906 243.546875 360.601563 243.265625 359.878906 243.265625 359.097656 243.265625 358.695313 243.566406 358.394531 244.078125 358.105469 244.59375 358.039063 245.09375 358.039063 245.941406L357.191406 245.941406M111.15625 15.753906L110.910156 15.753906 109.371094 15.878906 109.371094 16.167969C109.371094 16.167969 109.550781 16.144531 109.75 16.144531 110.050781 16.144531 110.097656 16.335938 110.097656 16.480469 110.097656 16.660156 110.0625 16.835938 110.0625 16.835938L109.035156 22.015625C108.945313 22.492188 108.878906 22.882813 108.878906 23.128906 108.878906 23.519531 109.136719 23.71875 109.582031 23.71875 110.320313 23.71875 110.753906 23.09375 111.144531 22.550781L110.921875 22.382813C110.742188 22.582031 110.453125 22.960938 110.074219 22.960938 109.941406 22.960938 109.871094 22.894531 109.871094 22.75 109.871094 22.59375 109.929688 22.28125 109.929688 22.28125L111.15625 15.753906M122.242188 19.972656L122.242188 19.214844 115.59375 19.214844 115.59375 19.972656zM122.242188 22.246094L122.242188 21.5 115.59375 21.5 115.59375 22.246094 122.242188 22.246094M131.320313 20.085938C131.320313 17.785156 130.316406 16.457031 128.878906 16.457031 127.261719 16.457031 126.402344 17.929688 126.402344 20.050781 126.402344 22.023438 127.058594 23.742188 128.855469 23.742188 130.609375 23.742188 131.320313 21.992188 131.320313 20.085938zM130.238281 20.148438C130.238281 22.292969 129.738281 23.339844 128.855469 23.339844 127.964844 23.339844 127.472656 22.269531 127.472656 20.105469 127.472656 17.898438 127.964844 16.835938 128.84375 16.835938 129.757813 16.835938 130.238281 17.886719 130.238281 20.148438M190.15625 15.753906L189.910156 15.753906 188.371094 15.878906 188.371094 16.167969C188.371094 16.167969 188.550781 16.144531 188.75 16.144531 189.050781 16.144531 189.097656 16.335938 189.097656 16.480469 189.097656 16.660156 189.0625 16.835938 189.0625 16.835938L188.035156 22.015625C187.945313 22.492188 187.878906 22.882813 187.878906 23.128906 187.878906 23.519531 188.136719 23.71875 188.582031 23.71875 189.320313 23.71875 189.753906 23.09375 190.144531 22.550781L189.921875 22.382813C189.742188 22.582031 189.453125 22.960938 189.074219 22.960938 188.941406 22.960938 188.871094 22.894531 188.871094 22.75 188.871094 22.59375 188.929688 22.28125 188.929688 22.28125L190.15625 15.753906M201.140625 19.972656L201.140625 19.214844 194.492188 19.214844 194.492188 19.972656zM201.140625 22.246094L201.140625 21.5 194.492188 21.5 194.492188 22.246094 201.140625 22.246094M209.753906 23.621094L209.753906 23.308594C208.726563 23.308594 208.3125 23.105469 208.3125 22.5625L208.3125 16.492188 207.992188 16.492188 205.824219 17.105469 205.824219 17.472656C206.171875 17.359375 206.742188 17.296875 206.964844 17.296875 207.242188 17.296875 207.332031 17.449219 207.332031 17.839844L207.332031 22.5625C207.332031 23.117188 206.941406 23.308594 205.890625 23.308594L205.890625 23.621094 209.753906 23.621094M269.957031 15.753906L269.710938 15.753906 268.171875 15.878906 268.171875 16.167969C268.171875 16.167969 268.351563 16.144531 268.550781 16.144531 268.851563 16.144531 268.898438 16.335938 268.898438 16.480469 268.898438 16.660156 268.863281 16.835938 268.863281 16.835938L267.835938 22.015625C267.746094 22.492188 267.679688 22.882813 267.679688 23.128906 267.679688 23.519531 267.9375 23.71875 268.382813 23.71875 269.117188 23.71875 269.554688 23.09375 269.945313 22.550781L269.722656 22.382813C269.542969 22.582031 269.253906 22.960938 268.871094 22.960938 268.742188 22.960938 268.671875 22.894531 268.671875 22.75 268.671875 22.59375 268.726563 22.28125 268.726563 22.28125L269.957031 15.753906M281.039063 19.972656L281.039063 19.214844 274.390625 19.214844 274.390625 19.972656zM281.039063 22.246094L281.039063 21.5 274.390625 21.5 274.390625 22.246094 281.039063 22.246094M290.078125 21.835938L289.753906 21.835938C289.496094 22.503906 289.351563 22.738281 288.757813 22.738281L287.210938 22.738281 286.429688 22.773438 286.429688 22.71875 287.902344 21.320313C289.085938 20.128906 289.71875 19.359375 289.71875 18.363281 289.71875 17.191406 288.839844 16.4375 287.578125 16.4375 286.496094 16.4375 285.738281 17.0625 285.390625 18.140625L285.660156 18.253906C286.070313 17.417969 286.5625 17.160156 287.289063 17.160156 288.148438 17.160156 288.679688 17.695313 288.679688 18.53125 288.679688 19.703125 288.121094 20.40625 287.019531 21.546875L285.324219 23.238281 285.324219 23.621094 289.71875 23.621094 290.078125 21.835938M347.054688 15.753906L346.8125 15.753906 345.269531 15.878906 345.269531 16.167969C345.269531 16.167969 345.449219 16.144531 345.648438 16.144531 345.953125 16.144531 345.996094 16.335938 345.996094 16.480469 345.996094 16.660156 345.964844 16.835938 345.964844 16.835938L344.9375 22.015625C344.847656 22.492188 344.78125 22.882813 344.78125 23.128906 344.78125 23.519531 345.039063 23.71875 345.484375 23.71875 346.21875 23.71875 346.65625 23.09375 347.046875 22.550781L346.820313 22.382813C346.644531 22.582031 346.351563 22.960938 345.972656 22.960938 345.839844 22.960938 345.773438 22.894531 345.773438 22.75 345.773438 22.59375 345.828125 22.28125 345.828125 22.28125L347.054688 15.753906M358.140625 19.972656L358.140625 19.214844 351.492188 19.214844 351.492188 19.972656zM358.140625 22.246094L358.140625 21.5 351.492188 21.5 351.492188 22.246094 358.140625 22.246094M362.960938 18.0625C363.339844 17.472656 363.753906 17.160156 364.421875 17.160156 365.113281 17.160156 365.558594 17.539063 365.558594 18.199219 365.558594 19.101563 364.765625 19.714844 364.007813 19.714844L363.796875 19.714844 363.796875 20.140625 364.019531 20.140625C365.089844 20.140625 366.039063 20.796875 366.039063 21.789063 366.039063 22.882813 365.359375 23.207031 364.65625 23.207031 364.386719 23.207031 364.230469 23.160156 363.753906 22.917969 363.359375 22.71875 363.273438 22.660156 363.09375 22.660156 362.804688 22.660156 362.65625 22.917969 362.65625 23.152344 362.65625 23.441406 362.902344 23.765625 363.90625 23.765625 365.535156 23.765625 366.953125 22.984375 366.953125 21.457031 366.953125 20.460938 366.207031 19.871094 365.3125 19.59375L365.3125 19.558594C366.015625 19.113281 366.519531 18.699219 366.519531 17.929688 366.519531 17.082031 365.859375 16.4375 364.722656 16.4375 363.808594 16.4375 363.117188 16.949219 362.703125 17.917969L362.960938 18.0625" />
</svg>